<svg preserveAspectRatio="none" overflow="visible" style="display: block;" width="13.6284" height="13.6284" viewBox="0 0 13.6284 13.6284" fill="none" xmlns="http://www.w3.org/2000/svg">
<g id="component" clip-path="url(#clip0_0_395)">
<path id="Vector" d="M8.82212 6.4128C8.71567 6.51929 8.65586 6.66369 8.65586 6.81427C8.65586 6.96484 8.71567 7.10925 8.82212 7.21574L10.1713 8.56552C10.2778 8.67198 10.4222 8.73178 10.5728 8.73178C10.7234 8.73178 10.8678 8.67198 10.9743 8.56552L12.3241 7.21574C12.4305 7.10925 12.4903 6.96484 12.4903 6.81427C12.4903 6.66369 12.4305 6.51929 12.3241 6.4128L10.9743 5.06301C10.8678 4.95656 10.7234 4.89675 10.5728 4.89675C10.4222 4.89675 10.2778 4.95656 10.1713 5.06301L8.82212 6.4128ZM1.30432 6.4128C1.19786 6.51929 1.13806 6.66369 1.13806 6.81427C1.13806 6.96484 1.19786 7.10925 1.30432 7.21574L2.6541 8.56552C2.76059 8.67198 2.905 8.73178 3.05558 8.73178C3.20615 8.73178 3.35056 8.67198 3.45705 8.56552L4.80683 7.21574C4.91329 7.10925 4.97309 6.96484 4.97309 6.81427C4.97309 6.66369 4.91329 6.51929 4.80683 6.4128L3.45705 5.06301C3.35056 4.95656 3.20615 4.89675 3.05558 4.89675C2.905 4.89675 2.76059 4.95656 2.6541 5.06301L1.30432 6.4128ZM5.06302 10.1713C5.01022 10.2241 4.96834 10.2867 4.93976 10.3556C4.91119 10.4246 4.89648 10.4985 4.89648 10.5731C4.89648 10.6477 4.91119 10.7216 4.93976 10.7905C4.96834 10.8595 5.01022 10.9221 5.06302 10.9748L6.4128 12.3241C6.51929 12.4305 6.6637 12.4903 6.81428 12.4903C6.96485 12.4903 7.10926 12.4305 7.21575 12.3241L8.56553 10.9748C8.61833 10.9221 8.66021 10.8595 8.68879 10.7905C8.71737 10.7216 8.73208 10.6477 8.73208 10.5731C8.73208 10.4985 8.71737 10.4246 8.68879 10.3556C8.66021 10.2867 8.61833 10.2241 8.56553 10.1713L7.21575 8.82212C7.10926 8.71567 6.96485 8.65586 6.81428 8.65586C6.6637 8.65586 6.51929 8.71567 6.4128 8.82212L5.06302 10.1713ZM5.06301 2.6541C4.95656 2.76059 4.89675 2.905 4.89675 3.05558C4.89675 3.20615 4.95656 3.35056 5.06301 3.45705L6.4128 4.80626C6.51929 4.91272 6.66369 4.97252 6.81427 4.97252C6.96484 4.97252 7.10925 4.91272 7.21574 4.80626L8.56552 3.45705C8.67198 3.35056 8.73178 3.20615 8.73178 3.05558C8.73178 2.905 8.67198 2.76059 8.56552 2.6541L7.21574 1.30432C7.10925 1.19786 6.96484 1.13806 6.81427 1.13806C6.66369 1.13806 6.51929 1.19786 6.4128 1.30432L5.06301 2.6541Z" stroke-width="1.46019" stroke-linecap="round" stroke-linejoin="round" stroke="white"/>
</g>
<defs>
<clipPath id="clip0_0_395">
<rect width="13.6284" height="13.6284" fill="white"/>
</clipPath>
</defs>
</svg>
